General

Format                           : MPEG-4
Format profile                   : Base Media
Codec ID                         : isom
File size                        : 194 MiB
Duration                         : 9mn 18s
Overall bit rate                 : 2 916 Kbps
Encoded date                     : UTC 2012-01-27 22:56:25
Tagged date                      : UTC 2012-01-27 22:56:25

Video
ID                               : 1
Format                           : AVC
Format/Info                      : Advanced Video Codec
Format profile                   : High@L3.0
Format settings, CABAC           : Yes
Format settings, ReFrames        : 2 frames
Codec ID                         : avc1
Codec ID/Info                    : Advanced Video Coding
Duration                         : 9mn 18s
Bit rate mode                    : Variable
Bit rate                         : 2 943 Kbps
Maximum bit rate                 : 20.0 Mbps
Width                            : 720 pixels
Height                           : 480 pixels
Display aspect ratio             : 16:9
Original display aspect ratio    : 16:9
Frame rate mode                  : Constant
Frame rate                       : 23.976 fps
Standard                         : NTSC
Color space                      : YUV
Chroma subsampling               : 4:2:0
Bit depth                        : 8 bits
Scan type                        : Progressive
Bits/(Pixel*Frame)               : 0.355
Stream size                      : 190 MiB (98%)

Audio
ID                               : 2
Format                           : AAC
Format/Info                      : Advanced Audio Codec
Format profile                   : LC
Codec ID                         : 40
Duration                         : 9mn 18s
Bit rate mode                    : Variable
Bit rate                         : 60.8 Kbps
Maximum bit rate                 : 79.0 Kbps
Channel(s)                       : 2 channels
Channel positions                : Front: L R
Sampling rate                    : 44.1 KHz
Compression mode                 : Lossy
Stream size                      : 4.05 MiB (2%)
